# xmcd
#
# Track frame offsets:
#	150
#	12154
#	24923
#	36188
#	47228
#	58666
#	71117
#	82682
#	93673
#	104602
#	115863
#	126734
#	139124
#	148843
#	161757
#	172425
#	181665
#	193174
#	202440
#	213526
#	223607
#	232895
#
# Disc length: 3230 seconds
#
# Revision: 1
# Processed by: cddbd v1.5.2PL0 Copyright (c) Steve Scherf et al.
# Submitted via: audiograbber 1.83.01
#
DISCID=580c9c16
DTITLE=Jim Reeves - Greatest Hits
DYEAR=2009
DGENRE=Country
TTITLE0=Mexican Joe
TTITLE1=Bimbo
TTITLE2=I Love You
TTITLE3=Then I'll Stop Loving You
TTITLE4=Penny Candy
TTITLE5=Drinking Tequilla
TTITLE6=Yonder Comes A Sucker
TTITLE7=I'm Hurtin' Inside
TTITLE8=My Lips Are Sealed
TTITLE9=According To My Heart
TTITLE10=The Mother Of A Honky Tonk Girl
TTITLE11=Am I Losing You
TTITLE12=Waitin' For A Train
TTITLE13=For Walls
TTITLE14=Two Shadows On Your Window
TTITLE15=Young Hearts
TTITLE16=Anna Marie
TTITLE17=Overnight
TTITLE18=I Love You More
TTITLE19=Blue Boy
TTITLE20=Billy Bayou
TTITLE21=I'd Like To Be
EXTD=Carol Media
EXTT0=(Torok) 1953
EXTT1=(Morris) 1953
EXTT2=(Barton) and Ginny Wright 1953
EXTT3=(Reeves) 1954
EXTT4=(Veale) 1954
EXTT5=(Center) 1955
EXTT6=(Reeves) 1955
EXTT7=(Coben) 1955
EXTT8=(Weisman/Blair/Peppers) 1956
EXTT9=(Walker) 156
EXTT10=Long/Newman) 1956
EXTT11=
EXTT12=
EXTT13=
EXTT14=
EXTT15=
EXTT16=
EXTT17=
EXTT18=
EXTT19=
EXTT20=
EXTT21=
PLAYORDER=
